<!DOCTYPE svg PUBLIC "-//W3C//DTD SVG 1.1//EN" "http://www.w3.org/Graphics/SVG/1.1/DTD/svg11.dtd">
<!-- Uploaded to: SVG Repo, www.svgrepo.com, Transformed by: SVG Repo Mixer Tools -->
<svg fill="#0FCD22" width="207px" height="207px" viewBox="-2.88 -2.88 37.76 37.76" version="1.1" xmlns="http://www.w3.org/2000/svg" stroke="#0FCD22" stroke-width="0.00032">
<g id="SVGRepo_bgCarrier" stroke-width="0"/>
<g id="SVGRepo_tracerCarrier" stroke-linecap="round" stroke-linejoin="round"/>
<g id="SVGRepo_iconCarrier"> <title>lightning</title> <path d="M24.653 10.866c0 0 0.479-6.444-5.426-7.18-5.062-0.517-6.602 4.187-6.602 4.187s-1.523-1.466-3.592-0.269c-1.851 1.143-1.523 3.234-1.523 3.234s-4.11 0.8-4.11 4.99c0.113 4.258 4.437 4.151 4.437 4.151l4.583-0.031 2.194-5.018 6.395 0.125-2.844 4.915 5.846 0.051c0 0 3.871 0.046 4.576-3.942 0.271-4.354-3.934-5.213-3.934-5.213zM19.394 15.95h-4.123l-2.632 6.017h3.772l-3.071 6.792 6.667-7.833h-3.508l2.895-4.976z"/> </g>
</svg>